<?xml version="1.0" standalone="no"?><!DOCTYPE svg PUBLIC "-//W3C//DTD SVG 1.1//EN" "http://www.w3.org/Graphics/SVG/1.1/DTD/svg11.dtd"><svg t="1482566182537" class="icon" style="" viewBox="0 0 1024 1024" version="1.1" xmlns="http://www.w3.org/2000/svg" p-id="3689" xmlns:xlink="http://www.w3.org/1999/xlink" width="200" height="200"><defs><style type="text/css"></style></defs><path fill="#00c73d" d="M578.634962 511.602611c-11.506227 0-23.030517 10.693385-23.030517 23.843359 0 10.693385 11.52429 21.404833 23.030517 21.404833 17.286435 0 29.64163-10.711448 29.64163-21.404833C608.276592 522.295996 595.921397 511.602611 578.634962 511.602611L578.634962 511.602611 578.634962 511.602611zM502.950362 400.514235c18.099277 0 29.623567-11.52429 29.623567-28.810725 0-18.099277-11.52429-28.792662-29.623567-28.792662-17.268372 0-33.741965 10.693385-33.741965 28.792662C469.208397 388.989945 485.68199 400.514235 502.950362 400.514235L502.950362 400.514235 502.950362 400.514235zM512 6.972376c-278.913106 0-505.027624 226.132581-505.027624 505.045687s226.114518 505.027624 505.027624 505.027624 505.045687-226.114518 505.045687-505.027624S790.913106 6.972376 512 6.972376L512 6.972376 512 6.972376zM416.554313 639.959358c-30.454472 0-52.654084-4.913177-81.464809-13.168037l-83.108555 41.960699 23.861422-70.771424c-58.416229-41.129794-92.989099-92.971035-92.989099-156.336567 0-111.901217 105.32623-197.484424 233.701041-197.484424 113.544964 0 214.770859 67.465867 234.513883 162.94768-8.236797-1.66181-15.642688-2.492715-22.217675-2.492715-111.901217 0-198.315329 83.921397-198.315329 185.147292 0 17.286435 2.474652 32.91106 6.574987 49.36659C430.535191 639.959358 423.1293 639.959358 416.554313 639.959358L416.554313 639.959358 416.554313 639.959358zM759.681919 720.611325l16.45553 59.22907-62.534627-35.367649c-23.861422 4.913177-46.910002 12.337132-70.771424 12.337132-110.25747 0-197.484424-75.6846-197.484424-169.504604s87.20889-169.504604 197.484424-169.504604c104.495325 0 198.315329 75.6846 198.315329 169.504604C841.128665 639.959358 805.742953 686.851297 759.681919 720.611325L759.681919 720.611325 759.681919 720.611325zM340.020744 342.910848c-17.286435 0-35.385712 10.693385-35.385712 28.792662 0 17.286435 18.099277 28.810725 35.385712 28.810725 16.45553 0 29.623567-11.52429 29.623567-28.810725C369.644311 353.604234 356.476274 342.910848 340.020744 342.910848L340.020744 342.910848 340.020744 342.910848zM707.840677 511.602611c-12.355195 0-23.030517 10.693385-23.030517 23.843359 0 10.693385 10.693385 21.404833 23.030517 21.404833 16.45553 0 28.810725-10.711448 28.810725-21.404833C736.633339 522.295996 724.296207 511.602611 707.840677 511.602611L707.840677 511.602611 707.840677 511.602611zM707.840677 511.602611" p-id="3690"></path></svg>